<svg version="1.1" xmlns="http://www.w3.org/2000/svg" viewBox="0 0 485.4591979980469 563.4754180908203">
  <!-- svg-source:excalidraw -->
  <defs>
    <style>
      @font-face {
        font-family: "Virgil";
        src: url("https://excalidraw.com/FG_Virgil.woff2");
      }
      @font-face {
        font-family: "Cascadia";
        src: url("https://excalidraw.com/Cascadia.woff2");
      }
    </style>
  </defs>
  <g transform="translate(251.19692993164062 10) rotate(0 112.13113403320312 177.0491485595703)"><path d="M112.91164834954125 0.10163694741359564 C112.91164834954125 0.10163694741359564, 112.91164834954125 0.10163694741359564, 112.91164834954125 0.10163694741359564 M112.91164834954125 0.10163694741359564 C112.91164834954125 0.10163694741359564, 112.91164834954125 0.10163694741359564, 112.91164834954125 0.10163694741359564 M82.78509293723458 46.84981924996791 C90.0896787320197 38.81252743174814, 96.57685484482893 30.198914983489534, 116.25370095565218 7.64247925517941 M84.05736069235557 44.486626695404624 C96.886718095433 29.184944156181626, 109.96404098570292 15.80941276071993, 117.3179936808278 6.11661620749021 M55.70413141994602 91.46090797126297 C79.71758678921016 60.09999986739574, 105.07669587978195 31.2987811348956, 120.32953457685383 12.906798987308527 M54.97936259879596 90.14514223650102 C71.29214818581535 71.35895784821288, 87.09567896384998 51.93224315750435, 120.73425028996738 14.938986691305423 M26.329125408028546 136.25019646062447 C66.16171377339728 91.72786974229135, 101.33489259036892 52.20126890451617, 128.23784171679208 22.120243672906284 M27.578232943957033 135.92006326465798 C51.902980070648965 107.98603051808429, 78.26571588930575 79.74297146457809, 125.69547049963066 21.319220074145917 M-0.12608937318078972 176.76159053778622 C47.88642033553134 121.27432668728234, 98.77277923407067 63.513679775043755, 131.40454142686093 30.581539113043213 M-0.2599513358866403 177.11078876367185 C50.11219851031579 123.99400124310804, 97.39102164361648 67.57518862166249, 129.63965832214916 27.909191571144724 M4.693503403294287 184.02409447401692 C50.09299236208681 134.8219533945882, 99.50636958282708 79.89237190128506, 133.84072637441633 34.984635287898776 M5.238161047178707 185.1932224188738 C50.767529670388335 130.60929580230794, 99.02077507870045 76.43161266681693, 135.71108513581632 35.072406826543805 M8.026722042255969 193.1405085199662 C47.73246508388107 149.08511604091905, 86.43960092269059 103.70958607772148, 140.64419061085235 41.70638299854351 M8.85081710889277 193.03347014497598 C59.656943535759936 133.59939305051932, 111.74226159850237 73.97329935075871, 138.6368174529637 43.7966785554762 M15.68991962408873 198.67047389648195 C60.53663482423323 148.9205923354195, 107.08792687863094 96.05820807125458, 144.99790180352497 51.018857225156886 M13.429892390577521 198.89588507688876 C40.42614654519361 169.24235429103695, 66.82861371728964 137.55032597231337, 143.1001891518848 50.53144990218387 M16.960386729177117 206.0876943244118 C64.76678024787421 156.35776361265255, 111.2578166564288 103.98148551408045, 149.3275880328187 56.62232418858667 M18.159293683555006 206.5252890995223 C63.19384910033444 155.85300378415786, 107.60194743479195 103.00428112860723, 148.27338827390162 57.345761501577094 M24.294528524877066 211.76580728393537 C59.29893827048768 170.7021214912844, 99.73201173367747 123.96202074985591, 153.019914879118 65.63111260968063 M23.648136116118664 213.75784410711867 C58.5739143664122 173.7708788777552, 93.06031535681531 132.40220046149537, 152.9106341103361 64.53912273856614 M27.141510591573123 221.7566414959003 C66.74027350672785 176.79452171137993, 104.08977308536288 132.8749899853513, 156.1406625097789 70.55948496861822 M27.11938897959054 219.92430948458806 C59.36759557296629 184.46739258285533, 88.79457369213091 148.7443257437591, 158.4413542894818 71.25238300739295 M31.661436009649776 227.77608818115442 C65.2687115410427 190.29746240237026, 98.89437798745493 150.88898662913795, 160.5923124761954 76.85460456647 M31.50305281529262 228.46091336684077 C82.2075774533848 168.95236331348136, 131.82500250552658 113.34367530972665, 161.5027715736702 77.62569877319059 M36.443522446463035 235.18997231987717 C66.70993348914877 202.81794826786327, 93.51675511814341 170.56486909184542, 165.11251994572348 83.1088588834154 M36.529336501518415 233.52022389811876 C66.48535011663668 200.54485486062035, 96.09206768454108 165.8730950403322, 166.3133760911948 85.63585693020099 M42.319747982397345 241.79231013291633 C73.33736730464867 206.1403623975917, 101.1879429544956 170.6026233205169, 169.77564146975715 93.347536220525 M41.91730307958987 241.3744067133323 C87.61846449933009 188.9011403167078, 132.47216284926844 136.75187433919655, 170.5494531043871 92.00895144355724 M44.08302819783728 249.79118034111966 C87.67959665758217 200.13109061694317, 126.19383901627128 151.9544555085289, 174.99120721565242 97.2411490579782 M44.46804684082906 249.02609619739164 C82.20194046006034 208.80932839161943, 116.6651320524239 168.29451304066367, 175.71855524154063 99.05770670750123 M50.20539326013882 253.79459542466662 C94.73507665041876 203.7889937883246, 140.98885577886944 151.94630969549303, 178.0054487348033 106.39311069684561 M49.157870413529466 254.81926674453877 C95.06336172886094 203.57316012849506, 138.9071484726456 150.9486699404306, 179.03603026498686 107.59415418716605 M56.651633749686454 263.588759104405 C101.57454074045161 210.81406610168992, 148.80373456938756 154.3744645355967, 183.89977119456577 114.55205861730666 M54.326930589013074 261.84249023968397 C90.5198340720078 223.8847566912477, 126.02316822379183 182.42426852642615, 183.79849330301928 113.76695577679367 M58.59747774686464 268.12393760118255 C94.53191386903647 229.50855740104922, 129.62925868994904 186.5093798465087, 186.7483401753243 121.14482154020908 M58.772415408601844 270.5398073177374 C100.57684645928286 220.68135897953925, 142.31262162371294 171.09971015963714, 187.91641364695988 121.2193708612943 M62.14776791902945 275.50033089517876 C91.08443713664764 246.19176937003036, 116.64416558791604 215.86559907780074, 193.33625875746347 127.2622906864007 M62.841721250589345 277.3215986229412 C103.2383291227309 231.76950418760555, 143.90174414244382 188.25047187627027, 193.00729183813073 127.70012757557826 M70.15010734656536 283.7463302072414 C118.69730672884086 223.58601339453762, 169.31086179576283 167.80256133160293, 198.8777446083392 135.64529103606097 M67.62109865629756 283.96784229020557 C117.79802168587247 225.9916662643239, 166.68616732133248 168.02386548660115, 197.48883675482526 133.67429406388752 M73.91303660985683 288.8043892582181 C106.63889031670297 250.0750182672159, 144.71833637181982 208.76906670818724, 200.17371677934554 142.2175483902604 M72.02882941704844 290.23898520444067 C100.04317484429588 259.9035201708568, 129.47462672705768 226.2295255868218, 201.11155240937498 142.48124554135507 M76.92421087625993 296.5168955282885 C105.78261947165623 262.82247692213315, 135.59805872217686 229.79385157828474, 206.61026793783847 148.29801272917845 M77.90840366113557 298.48681425988855 C105.24373811511457 265.89713816919334, 132.44191293050042 235.81758327412484, 205.33221018007342 149.1719876522229 M80.66404572615912 305.40442773830034 C118.13911565831157 262.36393741611715, 157.08518469923314 216.92547705401483, 208.66019213521201 156.8885348538857 M81.21716567988088 305.05771384145953 C112.58791978384701 268.3824265080519, 141.56782040433097 234.6188335183503, 211.19037657925207 155.42183311162404 M84.32389423993891 310.65162710910136 C118.88861589342918 275.6506990940172, 148.25533889498814 236.44050310772553, 216.88145703882213 164.88618974456156 M85.11949101460641 310.9035370840638 C119.26681772307478 273.91104124153304, 154.33592364640776 234.37936938195202, 215.68188548520442 162.36772506380046 M88.52422408495525 320.093068620871 C134.66138595674417 267.1080737966245, 180.3362847221423 218.4476730546724, 218.4187317000628 171.37095320227664 M91.0799635436056 318.1924771319434 C132.49326739468253 270.7415726963215, 175.4807441689147 221.04419425705095, 219.63536591026192 171.52091372388523 M96.47220431260222 325.7462280746798 C123.98901804232274 295.16010491168674, 151.66533153949982 259.5812604509938, 224.00185878629014 177.8180252072103 M95.39596227921002 326.46703420023124 C140.52597997831862 273.99455888984465, 186.0576397856114 221.66402548258014, 224.0857142327182 177.60427973612022 M100.96017759023579 332.0238054507072 C130.47719333267545 300.11391102105614, 159.56416840803428 267.11661663483335, 230.41555943586957 182.12137781976486 M99.57113359971316 333.48133893316935 C131.0258720229606 295.264063575432, 164.54709363035488 257.9434963060449, 230.11879905187618 183.20088207497025 M105.52324699824042 339.26669196980106 C132.18201741433393 307.76289413403236, 161.24840138176666 277.3648930435948, 202.82224569268868 225.59807251259497 M104.84797804643698 339.3591194656681 C129.29295401563874 310.1256637189439, 154.80479240912427 281.56802867071644, 202.56927362256096 226.38327537715247 M108.15745311700067 347.7298413528091 C124.89134076641191 325.3611943915642, 142.75824762772803 307.5250569098485, 173.4814651446384 270.48472733496425 M107.30102741070351 347.2045726826376 C131.17972923117793 321.17691938519545, 153.57039195551476 295.4763587852142, 172.11502049360095 272.834977105993 M113.03795111387251 353.56814107991073 C119.71338836552879 344.5019200795332, 128.4557337556207 333.4643536673397, 146.46681045907474 318.41279226705217 M112.93002182080625 353.71323547831986 C123.77558095918553 341.65885848500636, 135.94332139992878 328.2708640088629, 145.36906104328966 316.9507429057338 M113.30824789017271 354.3662529220276 C113.30824789017271 354.3662529220276, 113.30824789017271 354.3662529220276, 113.30824789017271 354.3662529220276 M113.30824789017271 354.3662529220276 C113.30824789017271 354.3662529220276, 113.30824789017271 354.3662529220276, 113.30824789017271 354.3662529220276 M117.3361551657695 346.2977452143971 C109.12458745126726 342.1147201824514, 102.79091652205263 333.25059944563657, 99.39452249194946 331.92923276327144 M117.79298679608885 346.0173723600749 C109.56814771999078 341.0906785962751, 103.7857714539944 335.0426424732992, 97.99385058890547 330.0958009270538 M120.29315343415475 338.4504624950557 C112.70195916708373 332.0823351363188, 105.36380584481253 326.0720290953384, 80.7669973947575 307.73685578089953 M121.32088824650383 340.23758939754657 C110.28744476115051 330.3836546263066, 96.90635462657582 318.4767103955142, 82.85403394107722 307.0779831802547 M125.40190798916106 334.0308912625307 C110.07079075211335 319.8788130328148, 95.4053444608085 305.6018231983133, 65.4648125685616 281.04470005096897 M126.18947649501447 332.75023731270375 C105.99432603730449 316.63048471949196, 86.7792053591763 299.93617387809405, 67.29037772415714 282.9003258033286 M130.8301434401635 327.2736506574471 C109.54615194778252 308.4550298880785, 90.4665926645907 292.2943521708988, 49.54942054251403 256.15788818511436 M129.74652986193337 326.16261591023397 C108.91045020480382 308.5016917470824, 86.68088949812724 288.1364166348379, 51.134231928234996 258.5882883219726 M132.70181231631426 319.42136329143943 C110.19245813162237 299.00824540616094, 86.26023824510601 279.0485722063827, 37.80734008643533 235.26378238194164 M133.29214833735017 319.5314347158343 C97.15578079580342 286.5571160090215, 59.168536706670764 253.71199472625003, 35.31310653406884 234.1159760988551 M137.8659333874339 311.5988913631136 C105.27424051792752 281.95699356144013, 69.7733618627025 251.6276662225315, 20.971898729477715 208.74563025308532 M138.22259190202297 313.86204909217304 C95.30474940331518 274.9610228637989, 50.13821041444179 235.61051730304078, 20.447414031748366 211.34478615967316 M145.11833418267457 307.12698248410425 C108.56806012209412 276.78248679463434, 72.7996122979829 246.59410104591893, 3.737361500793426 187.4007419101799 M142.62702304604142 307.04710606494746 C97.89248642524741 266.0011406986355, 51.97760058625968 224.19286053161045, 4.2395981613633325 186.86658428012376 M145.9704893114114 300.39650579503626 C96.26130089447278 257.6952054097337, 48.48079840385482 214.25348079567064, 2.357832114212897 174.46772957366053 M147.43134508971812 299.36578043884487 C92.4527734611215 252.87722646365395, 37.3742263943051 206.3384627581696, 4.448035097681668 174.65594459470455 M153.64481088301932 294.4623929365347 C97.56606750293813 241.90307460856377, 40.21235153445376 195.84342445557348, 7.15235479666066 165.7614380652566 M152.76849260336553 293.7027157685528 C98.74722752812377 245.42272805704172, 44.52143851112106 198.44115771702008, 8.767135278565405 166.83008008920743 M156.06993892665054 286.63757902023406 C113.49014120202244 249.94431199468397, 72.21721453836544 211.5379014873081, 13.160330435506722 161.5728927646786 M156.34872182707335 285.76696532976837 C126.936735420982 261.3016090170454, 96.02050934778981 234.16254655297718, 10.857759552322051 160.17379055740537 M160.64957971212561 277.3672387447403 C117.06476007743956 239.22460204283038, 72.24856699341751 202.4100797415772, 16.68390280057166 154.8238308705325 M159.60344899159963 279.5912282351599 C120.58438558420164 244.78122746954477, 81.68249870343811 210.18002092096495, 16.26460539970968 152.91899386196684 M163.48424826859682 272.54243222168793 C133.87787283983613 245.25022189747506, 102.56045652460142 217.57578670268984, 22.47202442100768 148.13187499445283 M164.28199283703415 272.4704952604245 C111.19263997190951 224.31811905268844, 57.40409983077842 177.41425548106884, 20.975272810818005 146.4348995285889 M170.14010670543908 264.374341091702 C113.91091401961468 217.36858856602407, 59.378222071309295 170.52971375913924, 24.489294906189805 138.68476927706453 M168.59541293368935 264.46128496024966 C116.36539123091742 218.93577136738884, 62.226894866169786 171.25823110471455, 25.56410260595954 140.72724486195895 M171.88954505180467 256.3321504664169 C132.31221596124664 222.1512369128306, 92.30992277193616 185.11037571151934, 30.911251365493015 131.83432035899267 M172.83209052165498 257.94452561033233 C124.13899781107075 215.25042703162202, 76.3123787914347 171.86212130524018, 29.56246685544677 132.6572359167646 M178.48001957751416 252.01728504443884 C137.11766278382777 216.56092834619238, 96.13296570708425 181.1414586153985, 33.11965882806955 126.69033835187167 M177.5015668316891 251.12479132334113 C122.6744123104001 203.1259918361027, 67.56554632934068 156.76791928762532, 33.82905929936943 126.16048846870274 M183.3557953117197 245.4770549374021 C151.66601115885544 214.05132702125863, 116.95785911634334 187.73871834923753, 38.47134856373996 120.99487295430761 M181.9312856038814 244.9689478749729 C132.04546865371583 200.2678276770053, 81.04063430115534 156.89645315684135, 38.693733668485585 119.74626413044196 M188.42678436379637 238.07889178593177 C151.87954369705858 207.83324345548317, 112.64641299408355 175.4206847237138, 43.51996060165646 113.43585927793495 M186.41043140854444 238.70538881991524 C134.6394488667915 192.24573231089377, 82.49806550292315 147.2483703531446, 42.55424620288493 113.43611617767922 M193.06383634311914 232.10428973065285 C152.0376378822301 197.73672186639445, 113.93616020801588 164.99509835556194, 46.78478205119404 104.5213539633787 M190.56022006599068 232.04297646285562 C157.78385338760566 203.3437870117137, 126.1932166054707 175.09131300075555, 48.02009397287998 106.26312566510204 M195.09402877884017 224.34274638319985 C158.39746361036575 190.2542500750684, 120.79873468953745 160.25618663833694, 48.99132794150495 97.51741712227336 M195.7041890663098 223.38998282949106 C141.52988647050896 176.83449456314824, 88.47012313011976 130.80037985018575, 51.52809571856045 97.8347833684074 M199.56950544078012 218.96599894217877 C141.66185173480565 165.64166586845445, 82.69091787383603 116.98850171930697, 53.840179542409736 91.3223484532249 M199.01203589025994 217.35332578249006 C152.4004605436907 175.2665764980227, 105.53564766276004 133.67317625513755, 55.486230170684415 91.8322259002638 M203.98921885809114 209.84167001922407 C149.21969066718708 162.88522687670314, 93.89783705384575 114.08274162109696, 61.2287268830606 86.78033306786787 M204.09636052793076 209.67721484754958 C172.66095176899998 183.1533470326942, 142.30780980262773 156.2236172328284, 58.87037856934157 84.94888153636825 M207.06776864014827 205.4075037549608 C161.76344361082812 163.20566909509603, 114.61403665055423 122.6969207484353, 64.02000707283257 79.55567760682725 M209.1565037996348 204.74238732935717 C178.44840203058138 177.3042639799166, 148.42162218499817 150.73345657716362, 63.36816298484443 78.38970633140825 M212.9759823161037 197.6092477610234 C174.426209819946 165.40313742437473, 134.5508715030732 130.8602254724089, 69.03799472110063 73.72675121072803 M212.59412819546176 197.12899025360977 C173.7083645281771 161.87014863277076, 135.41734098136135 127.63395289576465, 67.7492367375055 72.0901250900713 M216.109753655778 190.7748892360179 C175.22936810760808 153.8935349003492, 134.18014705975608 116.55415143940169, 74.062892357017 63.3799264912047 M217.1570561961697 189.11581648297593 C159.9910819328451 142.18031050392054, 104.07027004452232 92.42753861865087, 72.23557481741449 64.93497233805438 M222.31178518832343 183.9283007915789 C184.666738647584 152.97974060049268, 151.73563342762614 123.72584997760308, 76.59996875040225 57.48381564686329 M220.53601279184835 183.6189505431527 C176.71205008638165 144.13020030401083, 133.74482105084013 108.01322487177369, 76.64531220532946 58.25772843802602 M225.6404265231149 175.66347656833122 C188.97833500682975 144.4025483472509, 152.63582094721102 113.90280152953673, 83.1013014304086 50.20291628933829 M225.50846380281018 175.69100473882744 C174.93893279788793 132.58556341475128, 126.20195220601221 90.10132019608204, 80.98948639134014 50.77916541568321 M210.4972252639582 153.33699748213726 C184.91210892953447 132.18527965767765, 157.42864081912458 108.39299241116967, 85.73461500641102 45.771847559254695 M211.44116679379843 152.33858439992505 C185.447936683213 131.77756127774177, 159.79351747696535 108.37011838220897, 85.615875695759 44.106583075713445 M197.98014552579758 128.52245839838474 C160.47541561643166 101.60470081684747, 128.82250499541624 72.21734988686913, 91.37857158778456 36.089291097237506 M196.01838959069488 130.60171505589574 C160.7877117412772 98.44684029462647, 124.10927538345244 67.13519981367227, 89.5792896888986 36.95274997280423 M182.27563983778526 105.3999819287081 C146.73129315163254 77.56480433431486, 115.53068379433488 47.45400852436552, 94.6180612036814 30.311932014921208 M181.00898218358924 106.56835623243644 C155.2102493892819 83.51217332913977, 130.42279471539305 62.356005917132286, 95.0118596108486 29.35484438265254 M166.29522696974186 82.0319302717134 C145.1015509252525 63.49353529676395, 122.87548123389826 45.46168859416547, 98.51304012392212 23.728695010911835 M167.27795455323962 83.27511329221574 C140.52698078174078 61.0562431482238, 113.78429335356671 38.01577651613282, 99.26687669236709 24.17369041792692 M154.89723445081952 60.6765510390351 C137.2337108980024 46.340225374870755, 120.4384332633712 32.90443865911205, 103.82027337765892 16.074390196843865 M153.38321918973568 59.64588326093055 C143.41238363171746 51.262778845171276, 132.5913642520606 41.945326595302106, 103.51553467354377 16.032403854324343 M139.65563689039328 36.66221337129819 C132.01515161655104 32.06268312189132, 126.15928858525415 23.47608268305208, 105.76217307426683 8.403949213342301 M137.71942941338995 37.99109094326842 C131.03092371841186 29.74867049112186, 122.24040316879703 23.12346448713145, 106.89076812469116 10.815628246532313 M123.93333147742464 15.599125629353509 C120.6894684623401 12.529993531834824, 118.90739562298839 7.1967157763844565, 111.25165476093791 4.463750570107436 M124.75967019476606 14.195350417184814 C119.3939779415408 10.34928902323818, 115.46581582041406 6.241680136232087, 112.72001799533865 3.8254383286723836" stroke="#553c9a" stroke-width="1" fill="none"></path><path d="M112.61429898521047 1.4545018427150886 C143.67128279118663 49.820883193968875, 175.1478915770643 98.90059884774467, 225.2918137165216 179.27262782278106 M112.85218139181332 -0.5960462091707548 C143.5153438989821 45.81891640379503, 172.1462752366507 93.10315602630473, 224.27859874887548 178.25945040674654 M224.83587274298162 176.5089615754059 C190.66682223224907 231.1661086654716, 153.12092646497285 288.64457378030625, 111.42921224180309 355.44564480599666 M223.62895655645522 177.32288840492913 C196.22766026755795 220.76871130227502, 170.05722033856665 264.6388157503009, 112.15946200202443 354.86127731255306 M111.58752489103081 352.38554787363006 C75.85564653052242 296.9510487625679, 39.97928122318898 236.97834935750663, -0.9379463587007532 178.72418154512442 M112.19155952666668 353.9909924735538 C89.82372146256236 317.23591102236173, 66.29159162637535 281.02449332624474, 0.06916623330259775 178.3190545905686 M-1.2204976294726988 178.33337889457277 C39.61791434640467 114.04844220259493, 79.54698185949209 48.20850899443524, 113.42826189647573 0.7091447198605676 M0.5173756007300442 178.37009232882113 C29.725432125540713 134.97603970074496, 56.68686241603893 91.26654727832002, 112.39470633384822 -0.522278360917906" stroke="#000000" stroke-width="2" fill="none"></path></g><g transform="translate(129.21328735351562 199.3771209716797) rotate(0 112.13113403320312 177.0491485595703)"><path d="M112.91164834954125 0.10163694741359564 C112.91164834954125 0.10163694741359564, 112.91164834954125 0.10163694741359564, 112.91164834954125 0.10163694741359564 M112.91164834954125 0.10163694741359564 C112.91164834954125 0.10163694741359564, 112.91164834954125 0.10163694741359564, 112.91164834954125 0.10163694741359564 M84.69885812926644 46.20940381989894 C96.84360452314814 30.702841604140566, 107.26878468151561 21.73717723998709, 116.24410341575044 8.359630658606534 M84.52605144533867 44.65796394229946 C93.37832646656412 35.936895192383076, 102.47908305185723 25.09635589758153, 117.51637117087144 5.99643810404325 M56.95130878238804 89.95937040984634 C73.02889766792637 71.40986239763497, 94.78407636095241 47.77387075176206, 121.96609334798725 15.235240368762994 M55.313512793917724 89.90921095922593 C72.47192091672238 70.55879071369131, 91.53678081881603 50.38308447590466, 121.24132452683719 13.919474634001041 M25.27519345650572 133.90096450223518 C57.39740520780559 105.0395987665834, 83.63758105661438 68.33017364480651, 126.05009781458565 21.534340266763095 M27.71033769840497 136.74866522102548 C62.66298294736182 96.50695235950379, 95.79330041586286 56.4261134474647, 127.29920535051414 21.204207070796613 M2.4859103769565394 176.60152941679928 C27.308128390487795 148.84159257070567, 55.329192578681266 118.04441474577365, 129.77359836693967 27.32909365367737 M1.2393218450749686 178.52650696149442 C30.82073928239856 144.0064219709971, 60.25904729620588 107.25483799443137, 129.63973640423382 27.678291879562998 M4.790038370716772 183.86350692480733 C52.443402589163846 129.80174742324982, 103.69294595852904 69.04618219801908, 135.24925017240523 33.836888009685275 M5.185535271841488 184.89442111596395 C30.76573602547359 153.74347311256201, 58.6785326550463 121.69662329864693, 135.79390781628965 35.00601595454216 M7.5279582425886105 193.31313477690895 C38.52860363338232 158.05688484289803, 66.70706156731163 124.92737666078908, 137.9264097823764 43.70801163585735 M9.713943744444222 193.0192948491462 C36.96747121050162 160.6580856290447, 67.21816706693144 126.00712279368247, 138.7505048490132 43.60097326086713 M12.867585572956528 197.78349169395204 C50.22572930964805 159.87921001542287, 84.102980327822 117.31153991935916, 145.58960736420917 49.23797701237307 M14.938141554205146 199.59126254595157 C60.9508524176413 142.56870697492508, 108.11730961124374 88.85298533938149, 143.32958013069796 49.46338819277988 M18.68777344220507 204.77171889678425 C59.133125417834016 161.5771368469647, 98.63647555358776 112.38053563356429, 147.51613349828807 55.9004878600802 M19.178754242446303 206.90592734129018 C63.92644517658762 152.07710908921266, 111.01058164002414 97.14194958448645, 148.71504045266596 56.33808263519068 M22.296489517690176 212.42489136558515 C67.00401839743886 164.5845537288628, 110.07852660495041 113.3318663302436, 154.19421626499752 62.33331039982651 M22.056615687461132 213.47523237940413 C57.02275471314534 173.6891519392597, 89.98791217849296 134.9589545188557, 153.54782385623912 64.3253472230098 M26.24446187979639 220.31827532120244 C77.62118005442912 163.0203428681545, 125.51118300515535 104.95734233541802, 157.04119833169358 72.32414461179144 M27.68141393057168 219.4307182952036 C70.34121360022735 170.6834202819834, 112.24846267088694 122.70056721674406, 157.019076719711 70.4918126004792 M30.0433561089082 229.4411994844839 C72.85650344004875 182.08772919412678, 112.00187202732046 137.34999903369925, 161.56112374977022 78.34359129704556 M31.74486826309993 227.1343944735989 C72.51002204295497 179.22220724429707, 114.74872015947352 130.36253955178177, 161.40274055541306 79.02841648273191 M37.883952372381614 234.18292633560898 C71.65201384327817 192.4651441956, 107.17755368698498 154.53794330312962, 166.34321018658346 85.7574754357683 M36.6139063133394 233.78961030883195 C86.50615393779023 173.61636643762628, 138.48658600866509 114.83035977453379, 166.42902424163884 84.08772701400989 M40.44979125060108 241.11090959542548 C74.83862049218597 203.0751028001448, 104.34826445215813 168.52618535896545, 171.5633766935273 93.11452282903025 M40.51930987261203 240.84431268581307 C88.16633004458728 188.41332721975417, 133.98685099390588 134.9808618352165, 171.16093179071981 92.69661940944621 M46.63535082395117 248.95666548478115 C89.9272433192076 194.99012350701392, 138.71789348407955 141.55470269184622, 173.98271593795772 100.3586834570108 M44.64889198223989 248.6019172394525 C96.06439123222431 189.78497159589213, 147.6683469146554 130.9735200745357, 174.3677345809495 99.59359931328278 M51.26422375978787 256.60164398385547 C94.34711949511012 203.92368820605486, 141.41196434539452 151.6055274645969, 179.44902197126876 105.11680812078055 M50.240674020516465 254.8321796139922 C91.79261255766474 205.62692325859538, 134.98795539480494 155.79268860429568, 178.4014991246594 106.14147944065269 M52.90276313849566 261.8554863134962 C102.03988822133292 212.34813244291553, 145.20959214728128 159.07703409026198, 185.89526246081638 114.91097180051894 M53.771531528763745 262.1744529443425 C95.97589763823484 212.5569818614624, 136.99678431042292 163.7886630828752, 183.570559300143 113.16470293579788 M57.578259540459 269.4418961945511 C101.62206712130313 217.76511509564665, 145.37860556433824 170.20493351068228, 188.49716548698507 118.6914407170737 M58.05037129830369 268.7485591154135 C105.84174650363471 214.23444835834087, 153.05487449501857 160.20592314860346, 188.67210314872227 121.10731043362858 M62.497118133033965 274.98451110719964 C100.29294105475091 233.95187286080218, 134.20615480901938 193.48701353312748, 191.3913966301594 126.82254359129267 M63.31130845742986 276.7656600214474 C109.05401178892787 224.0973167728174, 154.06999264572244 170.80033027119964, 192.0853499617193 128.64381131905515 M69.85850449660504 283.7851597722896 C100.90163714257514 247.3911560684632, 134.5664891258697 209.13118782760353, 199.3937360576953 135.06854290335528 M68.40231229746425 283.9315150473543 C118.48073611881375 227.20254079418282, 166.56864044397102 170.4662672785875, 196.8647273674275 135.29005498631946 M70.57252171155666 290.8097334106687 C110.91636962134977 245.00806574385877, 151.38432143892874 200.3290708904362, 203.15666532098678 140.12660195433205 M71.8783833597288 290.0573523280445 C99.99485611693018 257.0563200924738, 127.85398515907103 225.03140258192926, 201.27245812817839 141.5611979005546 M75.97838744524492 296.6740570025164 C111.62151380799142 255.132173617241, 144.77289040938763 215.6992461475772, 206.16783958738986 147.83910822440245 M77.0947305225171 297.67074000775995 C106.69716410607938 263.9812156133155, 136.13524867519524 230.28871327989378, 207.1520323722655 149.8090269560025 M83.65807977805426 302.4221467686806 C128.32134075631325 253.01222239136519, 171.87679183589358 201.38324446180397, 209.25161540829856 157.48135001463703 M81.39541682715108 303.418843721411 C109.40562938584875 271.23881021527194, 136.84831650524984 239.96627769396554, 209.80473536202032 157.13463611779622 M85.1545142903692 313.51208143000895 C126.30305642065295 264.14690206210196, 169.26770955425872 219.02056397327377, 213.56752295106884 161.97383980521525 M85.20653656495278 312.6792978539079 C132.293457763756 258.65801241695436, 177.7206875706125 204.57213122980437, 214.36311972573634 162.22574978017772 M89.6897211495457 319.80187346668095 C116.70026812546158 287.1653516899841, 144.47977163332285 253.47346291415903, 217.11179376709467 172.16999089720767 M91.12939236421565 318.17107679949254 C122.91950133380927 282.6922576469068, 153.26143330642262 246.9670254666226, 219.66753322574502 170.26939940828007 M93.32243190697783 327.08243617976706 C126.13826779777148 288.07008472812305, 157.32569700955813 252.65146053817375, 225.71583302373216 177.06844077079367 M94.47308198727124 326.11246202329795 C143.55248318297723 268.6433785193803, 192.57815930795496 210.84999842334713, 224.63959099033997 177.78924689634513 M97.94655173002155 333.2899070494468 C136.1857441855876 288.82825158637036, 170.1578273104755 247.09589885636763, 231.51592435934674 181.83659898637558 M99.62797056241305 333.05836541956614 C141.60365853089664 283.1304875889303, 184.74260007434208 233.74614177437618, 230.12688036882412 183.29413246883774 M104.44874619906135 340.038614796568 C126.59137197385238 315.8924353459197, 144.64368795767524 291.9185645671145, 203.276042317826 226.81496451660803 M104.59827738096304 340.05829637320744 C131.38384543123695 306.39663149094906, 159.24517681789365 275.23421313997005, 202.60077336602257 226.90739201247504 M108.42661839448175 348.6069506419784 C121.59365217821117 329.4471121579888, 138.03889435176438 312.7677961540958, 173.1072969870609 273.01359291075465 M108.09525298424325 347.26723301913205 C126.24103940470728 326.2801175225862, 144.55445426147082 305.66510860389855, 172.25087128076373 272.48832424058315 M111.90688598363874 351.9232395658574 C124.75763815437229 340.352307747513, 133.34869801594152 329.382739441107, 145.18484353440738 316.5873716489949 M112.63035625054715 354.5564935015819 C119.96767415932669 347.1118971574383, 125.78046269520313 338.56910224302396, 145.07691424134111 316.73246604740405 M113.30824789017271 354.3662529220276 C113.30824789017271 354.3662529220276, 113.30824789017271 354.3662529220276, 113.30824789017271 354.3662529220276 M113.30824789017271 354.3662529220276 C113.30824789017271 354.3662529220276, 113.30824789017271 354.3662529220276, 113.30824789017271 354.3662529220276 M117.82918976698105 345.5709802970234 C113.28919284246024 343.78280848173483, 105.20935758443729 337.86546945975516, 97.71370607997741 329.2402104606439 M116.3139617897946 348.00129353030957 C113.01515450341137 343.12203652310046, 106.73255437445819 338.52507431892997, 98.17053771029677 328.9598376063217 M120.76364317452645 341.4607199775844 C113.51782641331911 331.49839085049183, 106.6212341463434 323.84810441540293, 81.0482552625706 304.3353929875493 M122.15483244797325 339.55813852798633 C110.32014542630269 330.220690971561, 96.73352312371388 318.74095135714225, 82.07599007491969 306.12251989004017 M125.01220638431792 334.74472387933673 C106.48367902914515 314.4764796866351, 85.32906062358626 296.1000426985788, 66.53456073178486 282.8582870012711 M125.99544752143507 332.7776536611611 C106.61824462166851 318.2455480215598, 89.26138139344116 301.35849548238167, 67.32212923763828 281.57763305144414 M131.84416650573053 327.18104864290547 C108.4014674047124 306.4984919644798, 82.96904682892641 287.09692638630884, 51.58563751677245 258.3874526134438 M131.07030408049263 326.0679199845214 C110.43384748700419 310.0172134006879, 91.53580617217852 293.8929645521006, 50.50202393854231 257.2764178662307 M132.73503856791643 319.28575437992515 C104.38296153368486 291.78625362022564, 71.23974567487737 267.13684652083765, 34.58956688735391 234.13368952267345 M134.4412208652356 320.4114282737643 C110.08939943104012 298.35336760652865, 84.00029168725268 276.61723466631145, 35.17990290838982 234.2437609470683 M138.13540384069623 311.20714078900164 C99.99128596648168 279.5121319977118, 61.06257552372746 244.92679954911887, 20.13123887268145 209.25368284059448 M139.14117660642208 312.8643151415581 C91.64089976657104 274.69312636234736, 45.777532121394856 234.67738545731007, 20.48789738727052 211.51684056965394 M142.69265235322206 305.03939298176965 C93.46267891781136 261.12383199117187, 40.74099649141996 218.77447892985128, 7.006481001907318 187.0681801788414 M142.7710525441417 305.4950088636001 C105.3202836727555 271.42822287458245, 64.894124978953 236.91471454818935, 4.51516986527416 186.9883037596846 M146.01982121486904 297.696817598854 C106.4059574147116 264.31957208302333, 64.00411725878975 227.0262182542159, 1.820959488861945 175.08923125784938 M147.64347074870707 298.8834654945776 C117.86564502006046 274.0463910769394, 88.55881494123645 248.4338072031713, 3.2818152671686676 174.05850590165798 M153.69088503501212 294.5077837808798 C110.90308270171278 257.0304403041181, 67.28471313335746 217.44494499492998, 9.495281060469864 169.1551183993478 M153.15308454043065 292.3401098391781 C95.54838264075238 245.10408261699632, 38.85610612393445 195.57323415119433, 8.618962780816076 168.39544123136594 M154.2360463428035 286.8086641394815 C120.09487363115113 253.39161560649103, 86.37585710122504 221.38744387020634, 11.920409104101083 161.33030448304714 M156.14686890940214 286.12477642309875 C110.7279070236927 246.5465537747567, 65.07058386157784 209.55549692216488, 12.199192004523894 160.45969079258145 M159.91057390806372 276.81807087326507 C104.77488934498679 231.3201693470313, 48.77973193455128 184.24044794569716, 16.500049889576175 152.05996420755338 M161.0679588363796 278.9459456090079 C111.94851666540492 235.9385242084265, 60.68937779696314 193.6603636315389, 15.453919169050195 154.283953697973 M163.91654525994508 271.95050159386506 C134.0554135486956 243.91436507568923, 104.89317747853337 219.14174528313816, 19.334718446047354 147.23515768450105 M164.5523918114528 272.89938942260255 C122.4052120701923 234.8897464725927, 78.19471040184906 195.70039985233097, 20.132463014484692 147.16322072323763 M169.1716850078225 265.69057544190645 C132.1346204328937 234.24385981346003, 97.91878675191565 199.18167257340022, 25.990576882889634 139.0670665545151 M169.57294615493416 264.9674076685703 C129.8065744224104 231.48833496483005, 90.99406793171657 197.2440914099679, 24.4458831111399 139.15401042306277 M172.54994568084825 258.53091502902373 C127.4958120069085 217.57669528669192, 80.56228471016199 175.29981139844958, 28.494724809478 131.68093495822058 M173.05472185691346 258.58170987260803 C123.3549300238075 217.61533437044065, 75.70164941658211 174.31021869540126, 29.437270279328303 133.293310102136 M177.6503460488429 250.846382553823 C136.10527954532978 218.0048142585901, 98.29480042319415 182.5606752243587, 34.33048975496469 126.71001050725192 M178.01897889814876 251.1226513973844 C139.7541972151435 218.25759796966372, 101.9201592325318 184.73284538767706, 33.352037009139636 125.81751678615421 M184.0187136409586 245.2077256279386 C144.99000288760965 209.10085946863262, 106.34193684593754 175.78877750934655, 39.206265489170256 120.1697804002152 M182.17987976872973 244.85787926859626 C133.04711254381104 199.70991467306754, 80.69089039109284 155.36606509259656, 37.78175578133196 119.66167333778601 M187.91652306657042 239.25581339199562 C141.68382239256238 197.15335648599256, 94.94474002082148 159.7543184325839, 44.27725454124691 112.77161724874489 M186.08832778896894 238.44156829093117 C132.12052498726808 189.6445268744871, 75.81980585098952 141.3450363632521, 42.26090158599498 113.39811428272836 M191.31618643505334 231.29557748661904 C160.50737278898754 201.33980514285923, 125.48176605812147 173.37905908026616, 48.91430652056965 106.79701519346598 M191.50225752917885 231.13336201907663 C154.89149982823855 199.04881805123546, 120.23362305997243 168.98133193343344, 46.410690243441195 106.73570192566875 M194.89634377555953 225.88995302344338 C162.5006498092217 194.51339307953114, 127.44929791689543 165.02792263681118, 50.944498956290715 99.03547184601298 M195.75692522944914 223.01731372872965 C155.54204062848677 189.69889407836405, 117.51698962068379 154.98939602694486, 51.55465924376034 98.08270829230419 M198.81070135790964 218.73411470107465 C147.21050259231987 175.66673114004075, 97.35163956116766 127.12148102479995, 55.41997561823066 93.65872440499187 M199.90874712053795 216.50112253255872 C157.8019576557293 180.14600634220596, 116.73179768064544 142.8158554863313, 54.86250606771048 92.04605124530316 M203.9097742112558 210.9691226311473 C153.91058493775972 170.59754912362095, 104.53415107310627 127.76603717844695, 59.83968903554168 84.53439548203718 M203.33204194253494 211.25477920626082 C157.5392473014955 168.8847641116135, 109.90476159711699 127.65898089979987, 59.9468307053813 84.3699403103627 M208.5097244449731 202.05615845428636 C161.60408792002875 165.1231810034252, 116.47944126904372 126.68667715457454, 62.918238817598805 80.1002292177739 M207.86286926575266 203.7098023045235 C164.54095163302244 163.62323054338498, 118.85500555853706 124.89730589951785, 65.00697397708534 79.43511279217027 M212.6329420882137 194.7144072821263 C162.1716886132875 154.06360578927104, 114.48717747000963 113.52272239602773, 69.58116207377702 72.95803225282702 M211.4146103302808 196.62212010304367 C165.5263697065497 153.8361278882836, 117.01300612682822 112.83320085097237, 69.19930795313508 72.4777747454134 M214.77688341079815 187.79529381327316 C173.3734245698318 151.8399163342412, 129.9942175527834 112.2650097413164, 71.96022383322855 65.46761469883104 M216.1218063668774 190.5713067144899 C168.1947179101103 149.8034544844685, 121.27137538477038 107.80896357536078, 73.00752637362024 63.80854194578906 M221.13581344187872 182.59612815936148 C185.02521517013122 150.32582437275727, 148.29405580415096 122.20002380774349, 78.16225536577396 58.62102625439198 M220.93690111563222 182.89922791455925 C191.2900621653598 156.54302927858518, 161.92391980828506 129.33707647650064, 76.38648296929888 58.31167600596578 M226.36964429083037 175.73434196101616 C190.21098156084548 142.11625567111628, 153.7723741446294 109.89172802602003, 81.49089670056546 50.35620203114432 M225.77407914685773 177.20927725793908 C180.55928225876158 137.66975375615726, 135.86349827919958 98.71007300651948, 81.35893398026073 50.383730201640546 M211.7314860614588 152.33995363409954 C186.19046141692303 129.9378749902663, 161.37516329357098 111.06634646783326, 85.21543494697804 44.43119866971307 M211.01181677529715 153.18384132455427 C175.91240698648548 120.29278816467087, 138.72105981150202 91.05008554067223, 86.15937647681827 43.43278558750086 M195.42086536870835 129.50999554399937 C171.83727601155618 108.96826385244329, 149.4516144340772 87.39407754964378, 91.56609471438674 36.018135310723224 M197.22110057683227 130.66372689385503 C174.30704883228685 112.04715704424353, 153.4875609403813 93.117782254719, 89.60433877928403 38.09739196823422 M180.9757972417312 104.69802780235007 C155.88834576095206 85.92926020759666, 133.2115323512042 64.17546901169612, 94.72932853194374 29.29713456580927 M180.9324992915528 106.66267474153831 C162.0491968098564 89.39597718796126, 142.42689222425633 71.60464661797725, 93.46267087774771 30.46550886953761 M168.90936295034794 84.98985010775772 C150.8719616921409 71.00804960657891, 138.96625059914948 58.71728435996754, 97.61665516946961 22.33055863357724 M167.64774165021686 83.26807148027268 C146.12896338422553 65.62572837176981, 125.13357942655517 46.35728857028713, 98.59938275296737 23.57374165407957 M153.93145252371076 61.41714757185675 C139.105929788299 47.47136512642358, 123.93872667091283 36.22748505123447, 105.08640215611656 17.376655125661614 M152.4364588929141 60.57959538575508 C138.56488658945128 46.51278924863162, 124.28740931433633 34.66850090481336, 103.57238689503272 16.34598734755707 M137.71760307119467 37.83172683527219 C126.41793553328759 26.779745594619506, 117.13448625158615 19.302597094835182, 108.71254410125962 9.763793182687394 M138.08002308995702 36.20845251267302 C127.38049429946125 28.41511879306917, 117.56864373484154 19.84486788128935, 106.77633662425629 11.092670754657618 M125.57248572089388 12.81361213295458 C120.52284031947376 9.64497661049474, 113.64745086456321 6.909750236782532, 111.85797819386028 5.102181165505385 M123.60252440848066 13.611100634622558 C121.28960703189044 11.822354872745787, 117.16224179681271 8.029924234405009, 112.68431691120169 3.6984059533366906" stroke="#553c9a" stroke-width="1" fill="none"></path><path d="M112.76819147935826 -1.596676430514444 C136.15070964054 36.42876760618554, 158.70100997688172 73.85054675006512, 223.87656705161666 179.45450184271508 M112.93492905680519 0.5147728250577047 C151.1116227624413 58.3856126935913, 188.04595700926714 118.63926145347058, 224.1144494582195 177.40395379082923 M225.6809373478924 178.0327605855482 C184.94436324401715 241.25734260714944, 144.3319654888444 302.7904227733933, 113.57360467657543 352.6072586945465 M224.71219443894256 177.21460612090155 C180.5870521708097 245.16911160823437, 136.66780929633234 314.27884178502956, 112.36668849004903 353.42118552406976 M113.21583708658564 352.42017242394434 C89.88486399784415 314.7941682310023, 62.82101910895648 273.67535638487755, -1.4124751089691903 176.28725075448946 M112.39067457542816 353.62932393979025 C77.08478288413171 298.8297999292853, 41.272406630897905 244.59892293456556, -0.8084404733333165 177.89269535441315 M-0.17356149670250723 178.13791462594935 C40.51738962886693 117.28877860153425, 79.72839281789108 56.19004012925528, 111.7795023705273 0.33337889457277414 M-0.04406263991508815 178.21413094823785 C29.75858969389851 130.22323286677198, 59.11021197613408 82.18408812926714, 113.51737560073005 0.370092328821136" stroke="#000000" stroke-width="2" fill="none"></path></g><g transform="translate(10 10.40985107421875) rotate(0 112.13113403320312 177.0491485595703)"><path d="M112.91164834954125 0.10163694741359564 C112.91164834954125 0.10163694741359564, 112.91164834954125 0.10163694741359564, 112.91164834954125 0.10163694741359564 M112.91164834954125 0.10163694741359564 C112.91164834954125 0.10163694741359564, 112.91164834954125 0.10163694741359564, 112.91164834954125 0.10163694741359564 M83.48305402922982 46.12969095216212 C94.14323350998578 29.86815980104425, 106.83342905582029 15.893828580056184, 119.60975073172945 7.5212202811040925 M84.52338068041557 45.737470339546775 C94.02944254504528 33.23953490205257, 105.76678693898113 20.661609803665527, 118.45515243231553 5.906709271798377 M55.722961957742044 92.4297979229689 C78.57838024995927 64.85566689716221, 103.00152399105771 35.592503392792445, 123.30454950185688 15.852243809619928 M56.199681750674316 90.17092255666856 C70.48396801318958 72.53371015603167, 85.79068844656301 56.579093692830355, 122.09970722871097 14.91087678320148 M24.855592969750347 135.36586833371712 C57.91926398978596 102.40700240367977, 83.63818125138171 71.79377401617367, 128.3389018688459 20.394843463479404 M26.16063934559125 135.25947654991342 C57.29460549665824 99.63677440985326, 87.90277931689343 63.94275356615495, 127.42435746156761 20.421759732692365 M-0.3974047094082067 176.0989955041406 C32.767000042465334 138.37685543693863, 68.26142318577094 103.99141426241349, 128.89653938409054 26.814932543753052 M-0.27407584855906464 177.30643755307767 C37.78676546339756 136.41279859415044, 73.77056786667265 93.06211963367221, 129.67570089321697 27.720139585404063 M5.076797747242651 186.025371205508 C56.929119078911604 127.27781539354507, 105.90881190529547 72.36042942426947, 136.99636721494673 36.92364853062033 M5.477481206137142 185.41661550149252 C40.70860646187192 147.30695193993338, 75.45422976084986 108.0092338948222, 135.1816026519525 34.423428235578534 M10.524831144505114 191.364983188469 C38.728805678570225 157.58676005093685, 64.91567016596318 128.55341449474867, 138.99399191280853 40.96502972515179 M10.377151275419564 192.71002255987008 C50.191697437027024 147.79228505463962, 88.58212131257265 104.07380153857962, 139.22772300010573 43.39834464834882 M13.020861062763657 200.54466017387148 C59.172846373938455 147.77520918813678, 106.71563332850127 93.478393563596, 142.58019364503193 49.82833860752688 M14.835403650610175 198.32991811312075 C43.91468006108176 166.1597672873174, 73.06360121371476 131.8384394168188, 144.43098956597018 49.59823821795688 M18.349990582402825 207.65529338256306 C47.93823825930856 168.8988176891533, 82.99470499807822 134.4528936476873, 149.93851299200145 54.58102889859338 M18.96973887303102 207.52503029615468 C68.73005992249033 149.439998199594, 117.98578004073946 91.20410049581447, 149.27218414086786 56.221055829312995 M24.726437370778555 212.43770779472334 C53.694019781908324 176.9121194765233, 84.88976856598593 145.30923920737385, 153.46342803410153 62.45461681919907 M23.697865820975537 214.26042725321395 C55.26846294369511 177.27726107064436, 85.3479583067957 141.82736815665402, 153.1891197661207 63.320213117327434 M28.607179508275394 219.0609196312 C65.70029711598322 174.44437905491367, 106.69783179512723 131.00476774047047, 159.4785314386882 68.83055234952337 M27.92634753576577 220.62077461920873 C75.8958015587077 165.64529125303932, 125.51379501833415 110.12579286915528, 157.66981782002227 70.41546572624213 M32.41013257527783 228.10800761284082 C78.197942118198 171.0534385547291, 129.24961690896305 115.02983892492067, 161.39411725715547 76.77318629063687 M31.64377830872371 227.42120677904933 C66.24768203535555 185.49335026115247, 101.85035117056282 144.455644932581, 160.78509481490403 78.65087637119017 M36.23232673914187 232.5619842198253 C67.24328589744579 199.10704409491464, 102.18291162668203 159.438595771288, 166.70565315685934 85.24209362271898 M37.013960768142866 234.8181981269777 C75.00833321324149 189.1097710760607, 112.93381583277719 145.99385741946998, 165.5620346290595 85.63213819641345 M39.66355258025196 240.58405317300117 C77.45777848451021 199.8247023624772, 110.90172391250871 156.81593121685165, 169.4953081891938 93.37975014684031 M41.56455170534518 241.71282054790413 C79.56037086499245 194.64952332955465, 117.26071622878807 149.9079037803378, 169.86051627482016 92.33925141704509 M45.504538178992675 247.4994806932162 C85.98909457514846 203.06044578306566, 128.18675933473315 155.51518212281786, 173.43042502151485 100.72385584318023 M45.28023916165273 248.36161467673887 C90.59351783392229 194.10067239820432, 138.14760706758796 141.45437852074534, 174.74668613047953 99.96384667732697 M51.48512620272 255.7834667606499 C99.5525291808957 199.13301292275725, 145.71353654161 143.40674960033067, 180.26504770521652 107.49501151280936 M49.695919515358995 254.98746115772389 C79.8821169892608 218.06794719055517, 110.80604454294865 181.79579529892422, 178.36948570836913 106.82186169239219 M56.07791973181841 261.83940259615 C84.3456574067665 229.43407617960446, 111.55612716987122 195.98114037069354, 184.83839390765476 114.80904213590712 M55.08534330778596 263.1828381257695 C96.5479631358511 214.7713274290809, 136.4517644626312 169.4324606103732, 184.3341238867824 113.19086460648269 M58.21645934667238 267.98474192056426 C86.44948597722056 235.8562704400043, 118.47707555919129 204.4622177459293, 188.23244170921407 120.20996393332126 M59.55429233025559 270.5206924657858 C108.54104975659891 209.8395823761025, 161.72078315638245 150.02416649365733, 188.23466370704136 119.46802105450871 M65.01340021463797 278.4368722140722 C96.96965214851053 236.46246048777357, 132.8087809323672 196.82693100915068, 193.49010669027902 129.65585562589962 M64.13375671106145 277.165311072015 C101.70982326257683 231.20564943777563, 140.6128606272576 188.95821595382745, 192.74719946046807 128.78096542138059 M69.57415791609967 282.09137219752154 C104.98647104583728 237.15024215572836, 146.88071720136634 191.8462091493218, 197.33341901820555 133.5047296938216 M67.96858074152553 283.27557832936725 C98.91617523934516 248.15001043129658, 128.99147040402815 213.17598668472982, 196.72303377535596 133.5986721013402 M70.71508553144191 292.50788309176 C103.17461594848585 256.88564515343364, 131.88769723726563 222.9874898202226, 203.32111024438765 142.04749943815773 M71.41063996296977 291.61584737275274 C123.42002942331209 231.41577408480032, 175.11758614717695 172.4917991268531, 201.72126441403654 141.88942255952065 M76.6816507280208 295.8959798769671 C105.40626154331211 261.51181954412874, 136.6029493474526 224.93183741384783, 204.84708553618137 149.7203023390875 M77.11201825368775 298.1668113464135 C127.39572597677108 241.1293494749944, 177.23542653743726 184.20774611585014, 206.38225650480334 147.95812869016387 M82.96208158622076 305.89342877399065 C116.84492971447236 263.09850334529256, 154.14074445055087 221.7776437462499, 209.6419514449807 155.39217669768146 M81.21365365500142 303.5287608852599 C120.62577332714872 261.56717860628504, 158.36298484300175 216.71751840995347, 210.30417030998785 155.3590094584029 M84.00554368642634 311.5520585036784 C136.75266659500707 251.22856229531237, 186.0556559393877 194.82606028963798, 214.7714881381416 162.57738499411906 M86.43851545823281 311.5324553742021 C116.51531073078002 275.24892294945704, 149.0407539178501 238.67923379792347, 214.41643345788356 163.73291425847972 M88.94031719599346 317.32363154620975 C120.71466316350822 283.18170913576915, 151.59056381336478 243.51176424330708, 219.13817716705805 171.72309052947085 M91.18478129167536 317.84999420748204 C119.86659757949306 285.16587617869254, 150.47451096151386 250.37643730496336, 218.85626871082192 169.71999955552738 M94.7313836663162 326.59281120265524 C125.0686382970497 293.85086574701626, 154.51372129737797 258.89654692049146, 222.47967369908616 176.42168078391623 M94.05842391766065 326.15278385023277 C119.8970765284303 296.66202895741884, 145.54820255116016 267.499964995218, 223.34216619709656 177.79705224378776 M101.17889826475056 333.88948495319437 C145.00021428142776 281.1642266671878, 194.5907370325295 225.16082307281454, 231.83851137259137 181.4343153178575 M100.24668346448215 332.94886119669627 C150.86178683646972 272.53711526233786, 202.66385605779607 213.73789312805638, 229.0185882660104 182.92603754772568 M104.07577657168098 340.42173151867496 C139.38005855565544 297.46087752947426, 178.4575768020858 252.63726032336317, 199.88491473146127 225.69524310394934 M104.05065422346182 339.7408606317829 C142.14481470923116 296.58300017263576, 178.95633377949605 252.86834250847218, 202.15378192238853 226.1834163540583 M106.925871667492 346.0616921199447 C129.14175144834266 323.80372251803385, 151.0805563736486 298.63907610836793, 171.63624386358677 271.80826969145534 M107.97846173592171 347.6368852904028 C133.06855563627835 319.7123506606634, 156.06155228989533 290.80910354056385, 172.2342234650594 272.8816123761117 M112.66215121953962 353.33144173718307 C125.45745520650817 341.51810830705926, 135.95999772121633 325.19151772437687, 145.17390393632388 316.522032560555 M111.8384398801553 353.96137831679795 C122.41519342021043 342.90294956669374, 131.2217424912506 331.89675326039685, 144.05652802231646 317.6692875081279 M113.30824789017271 354.3662529220276 C113.30824789017271 354.3662529220276, 113.30824789017271 354.3662529220276, 113.30824789017271 354.3662529220276 M113.30824789017271 354.3662529220276 C113.30824789017271 354.3662529220276, 113.30824789017271 354.3662529220276, 113.30824789017271 354.3662529220276 M117.87284611616317 348.90661166756786 C110.59135444553718 342.48772388004767, 105.15761430427324 337.0867861290641, 95.86811072017517 328.5065974464227 M117.54142408151213 346.83357702716626 C112.59030814148231 343.276894829613, 108.07520493096979 338.56218935375665, 97.52792859088149 329.5750343111862 M120.6521786740992 340.9578198539882 C113.34878462513858 330.9333301425815, 104.92867249136033 325.77581624718783, 80.72039061565899 305.9810219166875 M122.17054852387047 340.18883816253833 C108.59004701976463 330.38496129923374, 97.9682686961734 319.0728747618489, 81.90864645843409 306.27880851385 M125.7544100967813 333.6601281990999 C103.71880520742879 315.08503763019377, 82.72012169005268 293.20299293311, 68.88946586026387 280.48374381126865 M125.88096035026197 334.3674139646584 C113.14049113041503 320.7452435016918, 99.30417758028106 309.42364372616083, 66.38346909283237 281.51378312544927 M132.35507749358453 325.365343343528 C107.53603106827242 309.3277929401685, 88.27072826077236 288.4749166346163, 52.69460148314208 257.18707324180076 M130.70403163099922 327.730510488214 C109.08519487506814 307.7273580127519, 87.15314536057451 290.428166701461, 51.84234023416609 257.68432392168114 M134.83594589366106 320.1832753989071 C105.38170288157956 292.8078511205529, 74.00302989989953 264.8196328137659, 34.430128754114165 233.89555990688976 M133.9984561061719 319.7137435089022 C103.75206744433022 291.2963180877866, 71.35178659094723 265.07900819919763, 35.64636361319329 234.76844251521405 M139.55384656683148 312.85597406384295 C111.9066964649945 290.0354417960873, 88.4049102341381 266.4760144702541, 19.58718770233233 211.35963891817016 M138.59408750653805 312.32637463939136 C112.91616984023648 290.4713206171615, 87.12280633334889 267.8388683873425, 20.224545470003676 211.256442181745 M142.06241954224794 307.07137444997034 C114.73319204640485 280.6410472192022, 87.03474719524743 258.0427602810001, 4.867855856948822 185.49380788727646 M143.38868207218735 307.08995715537867 C109.16122080408974 276.7909828903998, 72.63121155912023 246.9871572092884, 4.462923294687002 186.994094946971 M147.88095192928554 300.33753319791407 C110.49262445379813 268.53598809460755, 77.17378841425162 237.8074433264985, 3.784049431794074 175.4038665346438 M147.49173687343242 298.53757211155147 C90.00917407460443 249.26857422056253, 34.45047783253004 201.06432406802992, 2.678467012011197 173.83488119538967 M153.48966833731924 293.5765694482992 C115.25938443343638 261.15916798579093, 84.25310681495966 234.03309762580906, 9.162625153792618 167.5218471820016 M152.59478023058568 292.4327693125973 C121.15141247518073 264.37338607458287, 90.96545907501037 239.34252677600915, 8.499180809838293 168.39992016279294 M155.32502129550124 284.7186058127603 C118.93656169646046 253.48779115608207, 79.7394203105739 220.02431625126303, 11.800796410314462 159.50596270906033 M155.34166213373686 285.98850828421325 C102.50658172139896 239.95141387846792, 47.37469561851799 194.801396928154, 10.894519286475798 160.60291789295377 M158.5485295736521 277.57600448990326 C106.78757371342844 235.18439120405384, 56.36271329088149 189.5200534316702, 17.00851947118018 152.39513781442594 M161.472392563644 279.3663943890677 C116.02277623679207 241.433249068687, 72.68686728532407 201.71586307790426, 16.092773672681787 154.42969849854063 M166.26852070092409 272.1570130913626 C115.48578474332587 229.10191706612764, 67.55660804121752 189.10054054125868, 19.792559365541983 147.67418260973298 M164.41988401039688 272.6153246528577 C121.93923803638079 234.23466853053702, 77.5293740676733 195.13825570978418, 20.14013770854597 147.62837775525057 M168.30896928669213 265.5400007577634 C136.7033044882471 237.32318447146193, 106.00043532759985 209.0682142616925, 25.625328202774888 140.1480287356064 M169.45378979430794 265.1707238802707 C136.2106006103736 237.91905215850178, 104.76883790358009 209.52652262981928, 25.044545964380866 139.20859921777102 M173.4500778601085 256.81134010074004 C139.2523306330505 228.8425503249505, 105.71829816629744 201.18405078588302, 31.44017559225388 131.53567033267126 M173.29608490546693 257.4174265970038 C126.06559344571052 215.56466074575837, 77.38906203206989 175.1203284074831, 29.145964260498957 133.66047519078955 M178.19711519099377 251.93964331889867 C147.456166230445 225.48739768844015, 118.68017428716905 197.97916101229015, 34.62667906313119 124.06410501256198 M178.2649043246319 252.18891316572547 C144.82732602362134 223.05688557835666, 110.41785416227243 193.54250837152978, 33.48668008698998 125.17352770000309 M184.0021588085001 246.08940802387366 C144.33947869763722 210.77354094190852, 105.03106848124534 177.84604466081908, 37.799482385227385 117.34256997388464 M182.87128554189258 243.70595561213264 C133.1891327875046 201.3409638551528, 84.30007134236105 159.84749019779645, 37.95514092461199 119.1359246080802 M186.03293332200255 236.49525335629005 C148.33282759848333 202.81889260024963, 106.32300282187202 165.52227136401993, 42.020038087694665 110.6761878282737 M185.96300687756147 237.07585374091286 C134.50050652754268 194.02842503812104, 83.69009168867105 149.46471595507583, 41.882696763454696 113.07312544071786 M190.1681008408761 232.05586095677285 C152.47980845217563 198.52786063406808, 112.54814907860064 161.87499572624336, 47.56544577990803 107.94020271635416 M191.09487790195107 230.51137610675363 C134.6899582755949 184.41439220886207, 79.87187335462177 136.03942092340108, 46.1874384238306 106.14711750260356 M193.9925513942729 222.92791593695657 C154.7964208103924 188.7331137324441, 116.93673731886116 153.85538090216284, 50.16903299101972 98.51786224976054 M194.89902985515104 223.54970098535196 C137.86586060839286 173.6054500877314, 79.98446931675822 123.56145210928904, 50.98977839582943 98.71929781943432 M199.56624125201364 217.4003429954472 C164.05040629471802 188.30485794075605, 130.34947780485527 155.57226175660122, 53.78919349085029 90.1746536270988 M199.22875396791954 216.55165248937635 C155.44978625190282 177.1987936101961, 109.54228211964025 140.08003030009286, 55.756289160209256 91.8497092538786 M202.64593544325044 212.20795224387922 C149.34596988430286 165.39567901856614, 93.81555421166956 118.37846392954548, 59.831129808551935 83.37194946000349 M203.75524398034622 209.64034639452376 C158.90826295597492 171.04138772714242, 113.7238289265089 133.43706843486882, 59.89644570705977 84.23568633163345 M209.45404607735836 205.40567532287767 C170.7165963205792 172.26367632138874, 133.05814774950414 140.90414386966825, 63.915691553499684 80.14124388909958 M208.11143446274363 204.20042625548174 C164.38812097372275 166.8594618964469, 121.88372303272259 127.11664429625536, 64.90646385669349 77.71109135738634 M212.91921318348957 197.306447344077 C167.51534052453454 155.16187489381116, 121.0995156900314 117.62840453818029, 68.87466583506853 73.67809355501208 M211.50758165520145 196.44094534794723 C177.1300805311802 167.4430721855423, 144.6995071535381 137.5569204900122, 68.73959067942292 71.46525538582478 M217.44514303146465 191.35544300608322 C161.78943873092447 141.53909843696917, 106.85326828319288 95.42745750923832, 73.74606768241068 65.93605856937548 M216.87510178847774 188.89460278458878 C165.90190367987805 147.50282295562053, 118.28063724216865 104.2150281677108, 72.17639491533777 64.26191919264575 M220.13235065043585 184.44372242053092 C168.60877319349046 137.89216252831673, 121.15581312076762 96.23994656423503, 78.54297836534671 56.50093863079579 M221.46331360266225 183.35638934110344 C180.49931045905447 149.96867186535076, 140.96820103614172 115.74075310977784, 76.9686052951961 57.93846939051778 M227.54699814977812 175.78246722804496 C175.6240398927801 130.9664262717033, 125.6981810822384 86.07586747417714, 81.47528791302884 52.904418850907504 M224.98327666806745 176.38282357217858 C173.0978652309686 129.89541443672766, 121.3319283250094 85.01691126057304, 82.43585305908763 50.34458425513786 M209.8484456332972 152.09544584448773 C181.19838780181433 125.8494764077872, 151.18613713881535 99.20079411483032, 87.71853343483204 43.49830587033563 M211.11034229943655 153.10941705773908 C174.07107399199523 121.4530381671228, 135.74737352551392 88.32047946753357, 85.60951027732486 44.841469841193486 M195.14246971593735 131.07344063524693 C167.24615508681217 101.46849442795244, 135.38533027906306 73.84470344533091, 90.40918954013136 39.04846882970516 M197.21237207265136 129.33010157723515 C168.66791216996242 105.62614997525291, 141.63829410044616 80.51857422562136, 89.60298027022031 38.52080095337216 M181.87333542685082 105.763761711957 C153.03059180111802 80.80725458468399, 125.91784122504848 57.510235206783435, 95.63995875807899 30.328780340650578 M182.11680972780158 106.51174290636375 C151.60769745479118 78.99191020615925, 119.3281565629414 51.86743401608466, 93.98198802786368 30.423662117370863 M166.4603740358582 81.84595877322403 C151.60763748162282 68.65372510770015, 136.12671293360714 59.196675344093094, 99.22860985849549 24.995352601777924 M167.12225899564532 83.69485265779343 C144.43341068536142 63.55929481257202, 122.78507008195945 43.75425934645218, 98.90841853101303 23.039783695858134 M152.51972557211164 59.945466930682436 C143.18848943061596 51.64326423901062, 128.36344079065083 40.685020277058754, 103.93972037053307 17.900183224721673 M152.59522611627224 60.43223410722114 C141.28694596783387 49.56966737038884, 128.77005627554487 39.84126091306042, 103.73705926975806 17.246187714530947 M139.63317714498618 36.50784282495725 C130.57242953165905 30.47774502536011, 121.6658257015732 21.650157101392296, 108.25351490356675 11.965391350106827 M138.11395815999487 36.2882183093344 C125.77782323436632 26.808189768452905, 113.66268113626168 14.895369953415148, 107.15943856441132 9.806423978076808 M124.32381705023958 13.528210979390128 C119.49495047364843 11.085717193667577, 114.63736094356939 5.954291164982233, 111.52290815601847 3.7363845041284307 M124.72004111685469 14.86013055710791 C119.59195957051932 9.645353296166132, 115.02976652435756 6.530167655941879, 111.69327649066946 3.586266442228292" stroke="#553c9a" stroke-width="1" fill="none"></path><path d="M113.16353210803348 -0.6660711149914466 C150.6203679509321 61.26962736976429, 190.6712927081211 122.85908411798444, 224.27053267916023 177.6209504715651 M112.75108289600176 -0.5343054357016843 C151.7934002145211 62.71314233082524, 190.2623359677849 125.72017696191175, 225.13719375122756 177.24540444925202 M225.6120468902163 177.40190741041323 C196.2001604677222 220.9560594605644, 166.84415804077366 267.6825627728557, 111.91192566490268 354.68594980993754 M224.4972179962641 178.50582156041898 C194.5316531786239 227.8278093603535, 164.28525547056063 275.95569348438704, 113.51383980965068 354.7268552918799 M112.93901530948756 354.18790044779087 C83.45785538185125 304.82348127969567, 50.551949330879744 255.14641733538264, -0.30678999895777553 176.80593632505906 M112.31443961456145 353.5435267610996 C77.20237486700672 295.6621887119532, 39.86842611147486 237.42725519716268, -0.1058764487927092 178.34006753260172 M-1.365769963607944 178.8240514698017 C27.238705298027515 136.35882380598255, 54.36621204460827 97.85672748403759, 113.30312773299751 -0.336853638925219 M0.44806726972770755 178.74616797697126 C25.79047758819071 138.20388288501735, 51.637179626076765 98.67188350113308, 113.03548551015463 0.25594504964944775" stroke="#000000" stroke-width="2" fill="none"></path></g><g transform="translate(128.88534545898438 14.4097900390625) rotate(0 112.13113403320312 171.54100036621094)"><path d="M114.95325664430857 1.6514774188399315 L222.72875288873905 171.6888588294387 L113.90455583482981 342.8967038020492 L-0.4681260213255882 171.08882459253073" stroke="none" stroke-width="0" fill="#3d9da8" fill-rule="evenodd"></path><path d="M113.37794879212821 -0.5552624269126664 C138.62873353659919 39.664328061706044, 163.770481610888 80.38907939252168, 224.77304900797347 172.4732274438166 M112.62510815241191 0.06313353549430378 C146.98087132148893 51.944395902138595, 180.68995049950058 103.79768298114108, 224.85141462696555 171.85858411200755 M225.08529175081497 171.765885759834 C188.81564536990433 229.0789814015727, 152.43362191967466 285.11210145343955, 112.54919739206248 343.6975549764206 M223.50937532432357 172.39274141369154 C195.46269194205314 217.96589619082965, 166.68961332125517 261.1520038610384, 113.78604868395894 342.59067817464745 M113.03732178248211 343.6361297194354 C69.66370372600424 279.4723825923375, 24.067850190476577 212.81232269903157, 0.225764816343709 171.13460798466556 M112.98765251742617 342.636750095167 C84.10848416121262 297.9720866937366, 53.99478136309627 252.95802741450382, -0.4415994332384548 171.61449018025104 M-1.3984515395514008 170.58561847591653 C36.22451894424362 114.43703319483507, 73.4004356457351 59.14196760207134, 113.34653299291128 0.36575811899855754 M0.5465936582106781 171.42045482010425 C26.032719946658258 130.98987076335933, 53.47335135392961 90.47915181432703, 112.28309168935753 0.43566471929302203" stroke="#000000" stroke-width="1" fill="none"></path></g></svg>